<mxfile host="app.diagrams.net" agent="Mozilla/5.0 (Windows NT 10.0; Win64; x64) AppleWebKit/537.36 (KHTML, like Gecko) Chrome/129.0.0.0 Safari/537.36" version="24.7.17">
  <diagram name="Page-1" id="QGZyfppiYIjlqEfBDxSL">
    <mxGraphModel dx="2074" dy="1042" grid="1" gridSize="10" guides="1" tooltips="1" connect="1" arrows="1" fold="1" page="1" pageScale="1" pageWidth="827" pageHeight="1169" math="0" shadow="0">
      <root>
        <mxCell id="0" />
        <mxCell id="1" parent="0" />
        <mxCell id="e4WnLCqYQgA73oLo-fjA-1" value="&lt;font style=&quot;font-size: 36px;&quot;&gt;&lt;b&gt;Nordenta Webscraper Architecture&lt;/b&gt;&lt;/font&gt;" style="text;html=1;align=center;verticalAlign=middle;whiteSpace=wrap;rounded=0;" parent="1" vertex="1">
          <mxGeometry x="209" y="10" width="409" height="210" as="geometry" />
        </mxCell>
        <mxCell id="e4WnLCqYQgA73oLo-fjA-3" value="&lt;font style=&quot;font-size: 24px;&quot;&gt;Competitors Website&lt;/font&gt;" style="verticalLabelPosition=top;html=1;verticalAlign=bottom;align=center;strokeColor=none;fillColor=#00BEF2;shape=mxgraph.azure.azure_website;pointerEvents=1;labelPosition=center;" parent="1" vertex="1">
          <mxGeometry x="150" y="230" width="110" height="90" as="geometry" />
        </mxCell>
        <mxCell id="e4WnLCqYQgA73oLo-fjA-4" value="&lt;font style=&quot;font-size: 24px;&quot;&gt;Local Client&lt;/font&gt;" style="points=[[0.13,0.02,0],[0.5,0,0],[0.87,0.02,0],[0.885,0.4,0],[0.985,0.985,0],[0.5,1,0],[0.015,0.985,0],[0.115,0.4,0]];verticalLabelPosition=bottom;sketch=0;html=1;verticalAlign=top;aspect=fixed;align=center;pointerEvents=1;shape=mxgraph.cisco19.secure_endpoints;fillColor=#005073;strokeColor=none;labelPosition=center;" parent="1" vertex="1">
          <mxGeometry x="350" y="450" width="142.86" height="100" as="geometry" />
        </mxCell>
        <mxCell id="e4WnLCqYQgA73oLo-fjA-5" value="&lt;font style=&quot;font-size: 24px;&quot;&gt;Nordenta Server&lt;/font&gt;" style="image;html=1;image=img/lib/clip_art/computers/Database_128x128.png;labelPosition=center;verticalLabelPosition=top;align=center;verticalAlign=bottom;" parent="1" vertex="1">
          <mxGeometry x="550" y="222.5" width="110" height="105" as="geometry" />
        </mxCell>
        <mxCell id="e4WnLCqYQgA73oLo-fjA-8" value="" style="shape=flexArrow;endArrow=classic;html=1;rounded=0;fillColor=#000000;" parent="1" edge="1">
          <mxGeometry width="50" height="50" relative="1" as="geometry">
            <mxPoint x="330" y="450" as="sourcePoint" />
            <mxPoint x="250" y="350" as="targetPoint" />
          </mxGeometry>
        </mxCell>
        <mxCell id="e4WnLCqYQgA73oLo-fjA-18" value="&lt;font color=&quot;#3399ff&quot; style=&quot;font-size: 14px;&quot;&gt;Requests Webpage&amp;nbsp;&lt;/font&gt;&lt;div&gt;&lt;font color=&quot;#3399ff&quot; style=&quot;font-size: 14px;&quot;&gt;&amp;amp; Scrapes Data&lt;/font&gt;&lt;/div&gt;" style="edgeLabel;html=1;align=center;verticalAlign=middle;resizable=0;points=[];rotation=50;" parent="e4WnLCqYQgA73oLo-fjA-8" vertex="1" connectable="0">
          <mxGeometry x="-0.2024" y="8" relative="1" as="geometry">
            <mxPoint x="-22" y="15" as="offset" />
          </mxGeometry>
        </mxCell>
        <mxCell id="e4WnLCqYQgA73oLo-fjA-12" value="" style="shape=flexArrow;endArrow=none;html=1;rounded=0;startArrow=block;endFill=0;fillColor=#000000;" parent="1" edge="1">
          <mxGeometry width="50" height="50" relative="1" as="geometry">
            <mxPoint x="360" y="440" as="sourcePoint" />
            <mxPoint x="280" y="340" as="targetPoint" />
          </mxGeometry>
        </mxCell>
        <mxCell id="e4WnLCqYQgA73oLo-fjA-17" value="&lt;font color=&quot;#00ff00&quot; style=&quot;font-size: 14px;&quot;&gt;Provides Newest Price&lt;/font&gt;&lt;div&gt;&lt;font color=&quot;#00ff00&quot; style=&quot;font-size: 14px;&quot;&gt;&amp;nbsp;&amp;amp; Description&lt;/font&gt;&lt;/div&gt;" style="edgeLabel;html=1;align=center;verticalAlign=middle;resizable=0;points=[];rotation=50;" parent="e4WnLCqYQgA73oLo-fjA-12" vertex="1" connectable="0">
          <mxGeometry x="0.4577" y="7" relative="1" as="geometry">
            <mxPoint x="54" y="-2" as="offset" />
          </mxGeometry>
        </mxCell>
        <mxCell id="e4WnLCqYQgA73oLo-fjA-13" value="" style="shape=flexArrow;endArrow=classic;html=1;rounded=0;strokeColor=#000000;fillColor=#000000;" parent="1" edge="1">
          <mxGeometry width="50" height="50" relative="1" as="geometry">
            <mxPoint x="540" y="340" as="sourcePoint" />
            <mxPoint x="480" y="440" as="targetPoint" />
          </mxGeometry>
        </mxCell>
        <mxCell id="e4WnLCqYQgA73oLo-fjA-15" value="&lt;font color=&quot;#00ff00&quot; style=&quot;font-size: 14px;&quot;&gt;Provides Artikel #&lt;/font&gt;" style="edgeLabel;html=1;align=center;verticalAlign=middle;resizable=0;points=[];rotation=-60;" parent="e4WnLCqYQgA73oLo-fjA-13" vertex="1" connectable="0">
          <mxGeometry x="-0.2461" y="-4" relative="1" as="geometry">
            <mxPoint x="-21" as="offset" />
          </mxGeometry>
        </mxCell>
        <mxCell id="e4WnLCqYQgA73oLo-fjA-14" value="" style="shape=flexArrow;endArrow=none;html=1;rounded=0;startArrow=block;endFill=0;strokeColor=#000000;fillColor=#000000;" parent="1" edge="1">
          <mxGeometry width="50" height="50" relative="1" as="geometry">
            <mxPoint x="570" y="350" as="sourcePoint" />
            <mxPoint x="510" y="450" as="targetPoint" />
          </mxGeometry>
        </mxCell>
        <mxCell id="e4WnLCqYQgA73oLo-fjA-16" value="&lt;font color=&quot;#3399ff&quot; style=&quot;font-size: 14px;&quot;&gt;Updates Item Price&lt;/font&gt;" style="edgeLabel;html=1;align=center;verticalAlign=middle;resizable=0;points=[];rotation=-60;" parent="e4WnLCqYQgA73oLo-fjA-14" vertex="1" connectable="0">
          <mxGeometry x="-0.1657" y="1" relative="1" as="geometry">
            <mxPoint x="14" y="27" as="offset" />
          </mxGeometry>
        </mxCell>
      </root>
    </mxGraphModel>
  </diagram>
</mxfile>
